<svg width="19" height="23" viewBox="0 0 19 23" fill="none" xmlns="http://www.w3.org/2000/svg">
<path d="M11.5954 1.82548C10.4492 0.641754 8.55078 0.641752 7.40463 1.82547L1.80641 7.60716C1.48489 7.93921 1.26884 8.35899 1.18548 8.81361C0.50559 12.5212 0.455404 16.3169 1.03703 20.0413L1.24295 21.3598C1.30799 21.7763 1.66669 22.0833 2.08822 22.0833H6.00001C6.32217 22.0833 6.58334 21.8222 6.58334 21.5V13.3333H12.4167V21.5C12.4167 21.8222 12.6778 22.0833 13 22.0833H16.9117C17.3333 22.0833 17.692 21.7763 17.757 21.3598L17.9629 20.0413C18.5446 16.3169 18.4944 12.5212 17.8145 8.81361C17.7311 8.35899 17.5151 7.93921 17.1936 7.60716L11.5954 1.82548Z" fill="#737373"/>
</svg>
