<svg width="19" height="19" viewBox="0 0 19 19" fill="none" xmlns="http://www.w3.org/2000/svg">
<path d="M11.6667 18.3333C10.8889 18.3333 10.1562 18.2083 9.46837 17.9583C8.7806 17.7083 8.15226 17.3611 7.58337 16.9167L6.41671 18.0833C6.25004 18.25 6.0556 18.3333 5.83337 18.3333C5.61115 18.3333 5.41671 18.25 5.25004 18.0833C5.08337 17.9167 5.00004 17.7222 5.00004 17.5C5.00004 17.2778 5.08337 17.0833 5.25004 16.9167L6.41671 15.75C5.97226 15.1806 5.62504 14.5522 5.37504 13.865C5.12504 13.1778 5.00004 12.445 5.00004 11.6667C5.00004 9.75001 5.66337 8.15973 6.99004 6.89584C8.31671 5.63195 9.8756 5.00001 11.6667 5.00001H18.3334V11.6667C18.3334 12.5278 18.17 13.3611 17.8434 14.1667C17.5167 14.9722 17.0273 15.7083 16.375 16.375C15.7084 17.0278 14.9723 17.5175 14.1667 17.8442C13.3612 18.1708 12.5278 18.3339 11.6667 18.3333ZM4.58337 8.33334C4.58337 7.29168 4.9481 6.40612 5.67754 5.67668C6.40699 4.94723 7.29226 4.58279 8.33337 4.58334C7.29171 4.58334 6.40615 4.21862 5.67671 3.48918C4.94726 2.75973 4.58282 1.87445 4.58337 0.833344C4.58337 1.87501 4.21865 2.76057 3.48921 3.49001C2.75976 4.21945 1.87449 4.5839 0.833374 4.58334C1.87504 4.58334 2.7606 4.94807 3.49004 5.67751C4.21949 6.40696 4.58393 7.29223 4.58337 8.33334ZM11.9167 10.25L8.18754 13.9792C8.02087 14.1458 7.94115 14.3403 7.94837 14.5625C7.9556 14.7847 8.03532 14.9792 8.18754 15.1458C8.35421 15.3125 8.54865 15.3995 8.77087 15.4067C8.9931 15.4139 9.18754 15.3339 9.35421 15.1667L13.0834 11.4167C13.25 11.25 13.3334 11.0556 13.3334 10.8333C13.3334 10.6111 13.25 10.4167 13.0834 10.25C12.9167 10.0833 12.7223 10 12.5 10C12.2778 10 12.0834 10.0833 11.9167 10.25Z" fill="#7A51EC"/>
</svg>
