<svg width="18" height="18" viewBox="0 0 18 18" fill="none" xmlns="http://www.w3.org/2000/svg">
<path d="M8.99996 0.0416565C9.34514 0.0416565 9.62496 0.321479 9.62496 0.666656V1.49999C9.62496 1.84517 9.34514 2.12499 8.99996 2.12499C8.65478 2.12499 8.37496 1.84517 8.37496 1.49999V0.666656C8.37496 0.321479 8.65478 0.0416565 8.99996 0.0416565Z" fill="#303030"/>
<path d="M8.99996 4.20832C6.3536 4.20832 4.20829 6.35363 4.20829 8.99999C4.20829 11.6464 6.3536 13.7917 8.99996 13.7917C11.6463 13.7917 13.7916 11.6464 13.7916 8.99999C13.7916 6.35363 11.6463 4.20832 8.99996 4.20832Z" fill="#303030"/>
<path d="M3.54936 2.66551C3.30528 2.42143 2.90955 2.42143 2.66547 2.66551C2.4214 2.90959 2.4214 3.30532 2.66547 3.54939L3.25473 4.13865C3.49881 4.38273 3.89453 4.38273 4.13861 4.13865C4.38269 3.89457 4.38269 3.49884 4.13861 3.25477L3.54936 2.66551Z" fill="#303030"/>
<path d="M17.9583 8.99999C17.9583 9.34517 17.6785 9.62499 17.3333 9.62499H16.5C16.1548 9.62499 15.875 9.34517 15.875 8.99999C15.875 8.65481 16.1548 8.37499 16.5 8.37499H17.3333C17.6785 8.37499 17.9583 8.65481 17.9583 8.99999Z" fill="#303030"/>
<path d="M15.3344 3.54939C15.5785 3.30531 15.5785 2.90958 15.3344 2.6655C15.0904 2.42143 14.6946 2.42143 14.4506 2.6655L13.8613 3.25476C13.6172 3.49884 13.6172 3.89456 13.8613 4.13864C14.1054 4.38272 14.5011 4.38272 14.7452 4.13864L15.3344 3.54939Z" fill="#303030"/>
<path d="M8.99996 15.875C9.34514 15.875 9.62496 16.1548 9.62496 16.5V17.3333C9.62496 17.6785 9.34514 17.9583 8.99996 17.9583C8.65478 17.9583 8.37496 17.6785 8.37496 17.3333V16.5C8.37496 16.1548 8.65478 15.875 8.99996 15.875Z" fill="#303030"/>
<path d="M14.7452 13.8613C14.5012 13.6173 14.1054 13.6173 13.8614 13.8613C13.6173 14.1054 13.6173 14.5011 13.8614 14.7452L14.4506 15.3345C14.6947 15.5786 15.0904 15.5786 15.3345 15.3345C15.5786 15.0904 15.5786 14.6947 15.3345 14.4506L14.7452 13.8613Z" fill="#303030"/>
<path d="M2.12496 8.99999C2.12496 9.34517 1.84514 9.62499 1.49996 9.62499H0.666626C0.321448 9.62499 0.041626 9.34517 0.041626 8.99999C0.041626 8.65481 0.321448 8.37499 0.666626 8.37499H1.49996C1.84514 8.37499 2.12496 8.65481 2.12496 8.99999Z" fill="#303030"/>
<path d="M4.13856 14.7452C4.38263 14.5011 4.38263 14.1054 4.13856 13.8613C3.89448 13.6173 3.49875 13.6173 3.25467 13.8613L2.66542 14.4506C2.42134 14.6947 2.42134 15.0904 2.66542 15.3345C2.9095 15.5786 3.30522 15.5786 3.5493 15.3345L4.13856 14.7452Z" fill="#303030"/>
</svg>
