<svg width="19" height="20" viewBox="0 0 19 20" fill="none" xmlns="http://www.w3.org/2000/svg">
<path d="M9.50004 0.375C7.08379 0.375 5.12504 2.33375 5.12504 4.75C5.12504 7.16625 7.08379 9.125 9.50004 9.125C11.9163 9.125 13.875 7.16625 13.875 4.75C13.875 2.33375 11.9163 0.375 9.50004 0.375Z" fill="#737373"/>
<path d="M4.83337 11.4583C2.41713 11.4583 0.458374 13.4171 0.458374 15.8333V17.2197C0.458374 18.0984 1.09524 18.8477 1.96252 18.9893C6.95449 19.8043 12.0456 19.8043 17.0376 18.9893C17.9048 18.8477 18.5417 18.0984 18.5417 17.2197V15.8333C18.5417 13.4171 16.583 11.4583 14.1667 11.4583H13.769C13.5538 11.4583 13.3399 11.4924 13.1353 11.5592L12.1255 11.8889C10.4195 12.446 8.58056 12.446 6.87456 11.8889L5.86479 11.5592C5.66018 11.4924 5.4463 11.4583 5.23105 11.4583H4.83337Z" fill="#737373"/>
</svg>
