<svg width="23" height="23" viewBox="0 0 23 23" fill="none" xmlns="http://www.w3.org/2000/svg">
<path d="M22.0948 8.66896C21.5692 4.44526 18.2214 1.09751 13.9977 0.571898C13.3583 0.492329 12.8334 1.02231 12.8334 1.66664V9.24998C12.8334 9.57214 13.0945 9.83331 13.4167 9.83331H21C21.6444 9.83331 22.1744 9.30836 22.0948 8.66896Z" fill="#737373"/>
<path d="M10.5 2.24998C5.02322 2.24998 0.583374 6.68983 0.583374 12.1667C0.583374 17.6435 5.02322 22.0833 10.5 22.0833C15.9769 22.0833 20.4167 17.6435 20.4167 12.1667C20.4167 11.8445 20.1555 11.5833 19.8334 11.5833H11.6667C11.3445 11.5833 11.0834 11.3222 11.0834 11V2.83332C11.0834 2.51115 10.8222 2.24998 10.5 2.24998Z" fill="#737373"/>
</svg>
