<svg width="27" height="14" viewBox="0 0 27 14" fill="none" xmlns="http://www.w3.org/2000/svg">
<path fill-rule="evenodd" clip-rule="evenodd" d="M0.958374 6.99999C0.958374 3.29508 3.9618 0.291656 7.66671 0.291656C10.2107 0.291656 12.4223 1.70765 13.5593 3.79166H24C25.1276 3.79166 26.0417 4.70574 26.0417 5.83332V8.74999C26.0417 9.23324 25.65 9.62499 25.1667 9.62499H22.5417V11.6667C22.5417 12.1499 22.15 12.5417 21.6667 12.5417H18.75C18.2668 12.5417 17.875 12.1499 17.875 11.6667V9.62499H13.8417C12.8203 12.0246 10.4411 13.7083 7.66671 13.7083C3.9618 13.7083 0.958374 10.7049 0.958374 6.99999ZM7.66671 4.66666C6.37804 4.66666 5.33337 5.71133 5.33337 6.99999C5.33337 8.28865 6.37804 9.33332 7.66671 9.33332C8.95537 9.33332 10 8.28865 10 6.99999C10 5.71133 8.95537 4.66666 7.66671 4.66666Z" fill="#737373"/>
</svg>
