<svg width="14" height="18" viewBox="0 0 14 18" fill="none" xmlns="http://www.w3.org/2000/svg">
<path fill-rule="evenodd" clip-rule="evenodd" d="M7.83332 1.49999C7.83332 1.03975 7.46023 0.666656 6.99999 0.666656C6.53975 0.666656 6.16666 1.03975 6.16666 1.49999V2.12499H5.70214C3.84792 2.12499 2.31325 3.56667 2.1975 5.41728L2.01333 8.36182C1.94312 9.48449 1.56621 10.5664 0.92366 11.4896C0.343091 12.3239 0.859942 13.476 1.86905 13.5971L4.70832 13.9378V14.8333C4.70832 16.099 5.73434 17.125 6.99999 17.125C8.26564 17.125 9.29166 16.099 9.29166 14.8333V13.9378L12.1309 13.5971C13.14 13.476 13.6569 12.3239 13.0763 11.4896C12.4338 10.5664 12.0569 9.48449 11.9866 8.36182L11.8025 5.41728C11.6867 3.56667 10.1521 2.12499 8.29783 2.12499H7.83332V1.49999ZM5.95832 14.8333C5.95832 15.4086 6.42469 15.875 6.99999 15.875C7.57529 15.875 8.04166 15.4086 8.04166 14.8333V14.2083H5.95832V14.8333Z" fill="#303030"/>
</svg>
